# Blender v2.79 (sub 0) OBJ File: 'door_frame.blend'
# www.blender.org
mtllib door_frame.mtl
o Frame_Cube.001
v 0.100000 -0.144420 -0.625000
v 0.100000 -0.144420 0.625000
v -0.100000 -0.144420 0.625000
v -0.100000 -0.144420 -0.625000
v 0.100000 2.097303 -0.625000
v 0.100000 2.097303 0.625000
v -0.100000 2.097303 0.625000
v -0.100000 2.097303 -0.625000
v 0.100000 -0.007441 -0.486147
v 0.100000 -0.007441 0.498728
v -0.100000 -0.007441 0.498727
v -0.100000 -0.007441 -0.486148
v 0.100000 1.960324 -0.486147
v 0.100000 1.960324 0.498728
v -0.100000 1.960324 0.498727
v -0.100000 1.960324 -0.486147
vn 0.0000 -1.0000 0.0000
vn 0.0000 1.0000 -0.0000
vn -0.0000 -0.0000 1.0000
vn 0.0000 0.0000 -1.0000
vn 1.0000 0.0000 0.0000
vn -1.0000 0.0000 -0.0000
usemtl Material
s off
f 1//1 2//1 3//1 4//1
f 5//2 8//2 7//2 6//2
f 2//3 6//3 7//3 3//3
f 5//4 1//4 4//4 8//4
f 9//2 12//2 11//2 10//2
f 13//1 14//1 15//1 16//1
f 10//4 11//4 15//4 14//4
f 13//3 16//3 12//3 9//3
f 6//5 2//5 10//5 14//5
f 6//5 14//5 13//5 5//5
f 5//5 13//5 9//5 1//5
f 2//5 1//5 9//5 10//5
f 4//6 3//6 11//6 12//6
f 7//6 15//6 11//6 3//6
f 8//6 16//6 15//6 7//6
f 8//6 4//6 12//6 16//6
